# xmcd
#
# Track frame offsets:
#	150
#	12045
#	25280
#	36993
#	54415
#	67628
#	83288
#	99258
#	115905
#	148673
#	161945
#	179033
#	188218
#	202300
#	215220
#	227545
#	239705
#	252198
#
# Disc length: 3522
#
# Revision: 3
# Processed by: cddbd v1.5.1PL0 Copyright (c) Steve Scherf et al.
# Submitted via: dBpowerAMP V4.0
# Normalized: r1:TSWAP
#
DISCID=fd0dc012
DTITLE=Various Artist - The Grand Hit Pack CD 4
DYEAR=1993
DGENRE=Various
TTITLE0=Chris Andrews - Pretty Belinda
TTITLE1=Showaddywaddy - Three steps to heaven
TTITLE2=Tracey Ullman - Breakaway
TTITLE3=Billy Ocean - Suddenly
TTITLE4=Jona Lewie - Stop the cavalry
TTITLE5=Bonnie Tyler - It's a heartache
TTITLE6=Lace - I'm a gambler
TTITLE7=David Soul - Silver lady
TTITLE8=Gibson Brothers - Cuba
TTITLE9=Kenny Rogers - Ruby don't take your love to town
TTITLE10=Samantha Fox - Touch me (I want your body)
TTITLE11=Lovin' Spoonful - Do you believe in magic
TTITLE12=David Garrick - Lady Jane
TTITLE13=Bobby Sherman - Julie do you love me
TTITLE14=Donovan - Colours
TTITLE15=Alvin Stardust - Pretend
TTITLE16=Ray Stevens - Misty
TTITLE17=Mockingbird hill - / Patti Page
EXTD=
EXTT0=
EXTT1=
EXTT2=
EXTT3=
EXTT4=
EXTT5=
EXTT6=
EXTT7=
EXTT8=
EXTT9=
EXTT10=
EXTT11=
EXTT12=
EXTT13=
EXTT14=
EXTT15=
EXTT16=
EXTT17=
PLAYORDER=
